<?xml version="1.0" encoding="UTF-8" standalone="no"?>
<!-- Created with Inkscape (http://www.inkscape.org/) -->

<svg
   width="210mm"
   height="297mm"
   viewBox="0 0 210 297"
   version="1.1"
   id="svg5"
   inkscape:export-filename="C:\Users\symrb\Documents\python\PremierEmpire\images\animaux.png"
   inkscape:export-xdpi="25"
   inkscape:export-ydpi="25"
   inkscape:version="1.1.2 (b8e25be833, 2022-02-05)"
   sodipodi:docname="animaux SVG.svg"
   xmlns:inkscape="http://www.inkscape.org/namespaces/inkscape"
   xmlns:sodipodi="http://sodipodi.sourceforge.net/DTD/sodipodi-0.dtd"
   xmlns="http://www.w3.org/2000/svg"
   xmlns:svg="http://www.w3.org/2000/svg">
  <sodipodi:namedview
     id="namedview7"
     pagecolor="#ffffff"
     bordercolor="#666666"
     borderopacity="1.0"
     inkscape:pageshadow="2"
     inkscape:pageopacity="0.0"
     inkscape:pagecheckerboard="0"
     inkscape:document-units="mm"
     showgrid="false"
     inkscape:zoom="0.8201665"
     inkscape:cx="143.26359"
     inkscape:cy="435.8871"
     inkscape:window-width="746"
     inkscape:window-height="860"
     inkscape:window-x="630"
     inkscape:window-y="7"
     inkscape:window-maximized="0"
     inkscape:current-layer="layer1" />
  <defs
     id="defs2" />
  <g
     inkscape:label="Calque 1"
     inkscape:groupmode="layer"
     id="layer1">
    <g
       id="g3217"
       transform="matrix(0.99985619,0,0,1.0002777,498.99787,-202.36138)"
       style="stroke-width:2;stroke-miterlimit:4;stroke-dasharray:none"
       inkscape:export-filename="C:\Users\symrb\Documents\python\PremierEmpire\images\animaux_gros.png"
       inkscape:export-xdpi="25"
       inkscape:export-ydpi="25">
      <path
         style="fill:none;stroke:#000000;stroke-width:2;stroke-linecap:butt;stroke-linejoin:miter;stroke-miterlimit:4;stroke-dasharray:none;stroke-opacity:1"
         d="m -420.40783,311.37098 3.53174,-7.6458 1.53233,-7.09716 -0.56454,-3.95181 1.04844,-5.96803 1.12908,-3.22598 -3.87117,-4.75829 1.04844,-1.93559 7.01648,6.61323 5.96805,8.95208 3.54857,0.80647"
         id="path888" />
      <path
         style="fill:none;stroke:#000000;stroke-width:2;stroke-linecap:butt;stroke-linejoin:miter;stroke-miterlimit:4;stroke-dasharray:none;stroke-opacity:1"
         d="m -404.01255,291.62777 3.7502,-4.87926 -1.1694,-5.8874 5.64544,8.18589 -1.33073,4.79864 3.83085,2.05655 3.54857,8.75043 0.84682,0.121 0.60487,1.45169 -0.60487,1.41134 0.4839,2.13722 -2.62112,3.70986 -5.4438,-0.16129 v 0 l -1.4101,2.15453 2.22409,4.10598"
         id="path1003"
         sodipodi:nodetypes="cccccccccccccccc" />
      <path
         style="fill:none;stroke:#000000;stroke-width:2;stroke-linecap:butt;stroke-linejoin:miter;stroke-miterlimit:4;stroke-dasharray:none;stroke-opacity:1"
         d="m -399.52555,300.82298 -1.18037,-1.13026 0.89693,-0.80449 2.57099,-0.0778 0.72583,1.08387 -0.68551,0.76615 0.64519,-0.6855 1.57268,1.25007 1.00811,2.37914"
         id="path1137"
         sodipodi:nodetypes="ccccccccc" />
      <path
         style="fill:none;stroke:#000000;stroke-width:2;stroke-linecap:butt;stroke-linejoin:miter;stroke-miterlimit:4;stroke-dasharray:none;stroke-opacity:1"
         d="m -392.11678,298.76525 1.61298,-0.0403"
         id="path1252" />
      <path
         style="fill:none;stroke:#000000;stroke-width:2;stroke-linecap:butt;stroke-linejoin:miter;stroke-miterlimit:4;stroke-dasharray:none;stroke-opacity:1"
         d="m -390.72903,310.21338 2.32213,-0.43951"
         id="path1402"
         sodipodi:nodetypes="cc" />
      <path
         style="fill:none;stroke:#000000;stroke-width:2;stroke-linecap:butt;stroke-linejoin:miter;stroke-miterlimit:4;stroke-dasharray:none;stroke-opacity:1"
         d="m -402.67223,313.16734 3.82085,0.48474"
         id="path1406" />
      <path
         style="fill:none;stroke:#000000;stroke-width:2;stroke-linecap:butt;stroke-linejoin:miter;stroke-miterlimit:4;stroke-dasharray:none;stroke-opacity:1"
         d="m -416.58698,312.05529 1.2546,2.22409 2.79437,2.28111"
         id="path1408" />
      <path
         style="fill:none;stroke:#000000;stroke-width:2;stroke-linecap:butt;stroke-linejoin:miter;stroke-miterlimit:4;stroke-dasharray:none;stroke-opacity:1"
         d="m -415.7886,308.86175 4.56223,4.90437 2.11,0.57028"
         id="path1410" />
      <path
         style="fill:none;stroke:#000000;stroke-width:2;stroke-linecap:butt;stroke-linejoin:miter;stroke-miterlimit:4;stroke-dasharray:none;stroke-opacity:1"
         d="m -414.7621,306.63766 2.68031,1.76787"
         id="path1412" />
      <path
         style="fill:none;stroke:#000000;stroke-width:2;stroke-linecap:butt;stroke-linejoin:miter;stroke-miterlimit:4;stroke-dasharray:none;stroke-opacity:1"
         d="m -413.79261,304.35655 0.17108,0.79841"
         id="path1414" />
      <path
         style="fill:none;stroke:#000000;stroke-width:2;stroke-linecap:butt;stroke-linejoin:miter;stroke-miterlimit:4;stroke-dasharray:none;stroke-opacity:1"
         d="m -411.51151,288.73098 2.45219,-0.2281 2.22406,1.76787 -0.11404,2.2811"
         id="path1416" />
    </g>
    <g
       id="g6079"
       transform="matrix(0.99985619,0,0,1.0002777,503.83613,-198.16646)"
       style="stroke-width:2;stroke-miterlimit:4;stroke-dasharray:none"
       inkscape:export-filename="C:\Users\symrb\Documents\python\PremierEmpire\images\animaux_gros.png"
       inkscape:export-xdpi="25"
       inkscape:export-ydpi="25">
      <path
         style="fill:none;stroke:#000000;stroke-width:2;stroke-linecap:butt;stroke-linejoin:miter;stroke-miterlimit:4;stroke-dasharray:none;stroke-opacity:1"
         d="m -353.74251,285.82257 -0.57026,-2.45218 -2.22409,-1.82489 -0.57028,-1.14054 -2.45219,0.91245 -0.74136,1.36866 -0.96946,9.35252 -1.6538,1.59678 0.28514,3.19355 -1.76787,2.79434 3.47869,3.59276 6.3871,0.057 5.24655,6.21602 -0.34219,1.42571 2.85139,0.45622 2.90841,-2.56625 0.17108,-1.36866 2.56624,-2.16707 0.91245,-3.07949 -0.34216,-1.71082 -1.8819,-3.76383 -0.74136,-2.50923 0.92626,-4.44408 -3.15035,-3.02654 -4.22006,-2.5092 -1.93891,-0.11406"
         id="path3271"
         sodipodi:nodetypes="cccccccccccccccccccccccccc" />
      <path
         style="fill:none;stroke:#000000;stroke-width:2;stroke-linecap:butt;stroke-linejoin:miter;stroke-miterlimit:4;stroke-dasharray:none;stroke-opacity:1"
         d="m -354.31277,283.37039 1.76784,-2.39517 3.25059,-0.74136 0.40558,4.41775"
         id="path3273" />
      <path
         style="fill:none;stroke:#000000;stroke-width:2;stroke-linecap:butt;stroke-linejoin:miter;stroke-miterlimit:4;stroke-dasharray:none;stroke-opacity:1"
         d="m -349.1803,293.97753 h 1.53974 l 1.42571,1.08352 -0.45623,-0.057 -0.34215,0.57025 -0.85543,0.17111 -0.79838,-0.22812 -0.057,-0.74137"
         id="path3275"
         sodipodi:nodetypes="cccccccc" />
      <path
         style="fill:none;stroke:#000000;stroke-width:2;stroke-linecap:butt;stroke-linejoin:miter;stroke-miterlimit:4;stroke-dasharray:none;stroke-opacity:1"
         d="m -344.21889,301.90437 1.19758,0.91244 2.79435,-0.62733"
         id="path3277" />
      <path
         style="fill:none;stroke:#000000;stroke-width:2;stroke-linecap:butt;stroke-linejoin:miter;stroke-miterlimit:4;stroke-dasharray:none;stroke-opacity:1"
         d="m -347.64056,302.13249 -1.42568,0.79838 0.57028,2.33813 3.72223,1.57531 3.01738,-2.42435 -1.9493,3.0161"
         id="path3279"
         sodipodi:nodetypes="cccccc" />
      <path
         style="fill:none;stroke:#000000;stroke-width:2;stroke-linecap:butt;stroke-linejoin:miter;stroke-miterlimit:4;stroke-dasharray:none;stroke-opacity:1"
         d="m -361.78341,282.45794 -2.28111,-0.17107 -4.16301,2.16704 -3.59275,3.30761 1.71083,-0.17108 0.96948,0.74136 -5.47465,4.96139 -0.3992,4.10599 1.6538,0.057 -1.42568,5.64573 2.22406,7.35658 4.79034,2.11 0.28514,2.22409 3.25056,-2.96542"
         id="path3281" />
      <path
         style="fill:none;stroke:#000000;stroke-width:2;stroke-linecap:butt;stroke-linejoin:miter;stroke-miterlimit:4;stroke-dasharray:none;stroke-opacity:1"
         d="m -362.981,286.0507 -2.73732,2.05298 -0.74137,5.36061 -4.22002,4.96139 4.04894,2.96545 -1.31161,2.39517 2.62326,1.31162 -1.19758,2.39516 1.14056,1.48273 2.68028,-0.0571 2.73733,4.44818"
         id="path3283" />
      <path
         style="fill:none;stroke:#000000;stroke-width:2;stroke-linecap:butt;stroke-linejoin:miter;stroke-miterlimit:4;stroke-dasharray:none;stroke-opacity:1"
         d="m -357.96257,313.19586 -1.31161,-2.05301 1.36866,-0.96946 1.59676,0.2281 -0.79838,-3.70679 1.59679,-1.0265 1.48269,2.45218 h 3.47869"
         id="path3285" />
      <path
         style="fill:none;stroke:#000000;stroke-width:2;stroke-linecap:butt;stroke-linejoin:miter;stroke-miterlimit:4;stroke-dasharray:none;stroke-opacity:1"
         d="m -358.7039,285.93663 2.22406,1.53975 1.6538,1.99596"
         id="path3287" />
      <path
         style="fill:none;stroke:#000000;stroke-width:2;stroke-linecap:butt;stroke-linejoin:miter;stroke-miterlimit:4;stroke-dasharray:none;stroke-opacity:1"
         d="m -345.07432,293.35023 1.88194,0.85539"
         id="path3289"
         sodipodi:nodetypes="cc" />
      <path
         style="fill:none;stroke:#000000;stroke-width:2;stroke-linecap:butt;stroke-linejoin:miter;stroke-miterlimit:4;stroke-dasharray:none;stroke-opacity:1"
         d="m -360.24367,297.05702 0.45622,0.45622"
         id="path4592" />
      <path
         style="fill:none;stroke:#000000;stroke-width:2;stroke-linecap:butt;stroke-linejoin:miter;stroke-miterlimit:4;stroke-dasharray:none;stroke-opacity:1"
         d="m -353.11521,295.3462 0.11406,0.74136"
         id="path4594" />
      <path
         style="fill:none;stroke:#000000;stroke-width:2;stroke-linecap:butt;stroke-linejoin:miter;stroke-miterlimit:4;stroke-dasharray:none;stroke-opacity:1"
         d="m -372.21945,294.94699 0.39917,-0.74136 0.74137,0.85542"
         id="path4596" />
      <path
         style="fill:none;stroke:#000000;stroke-width:2;stroke-linecap:butt;stroke-linejoin:miter;stroke-miterlimit:4;stroke-dasharray:none;stroke-opacity:1"
         d="m -366.5167,285.25229 -0.85543,1.0265 0.74136,0.68435 1.08353,-0.85543"
         id="path4728" />
      <path
         style="fill:none;stroke:#000000;stroke-width:2;stroke-linecap:butt;stroke-linejoin:miter;stroke-miterlimit:4;stroke-dasharray:none;stroke-opacity:1"
         d="m -371.70621,304.0144 -0.62731,0.91244 0.79838,0.57028"
         id="path4765" />
      <path
         style="fill:none;stroke:#000000;stroke-width:2;stroke-linecap:butt;stroke-linejoin:miter;stroke-miterlimit:4;stroke-dasharray:none;stroke-opacity:1"
         d="m -364.00747,302.41763 -0.11407,1.76784 1.02651,-0.51323"
         id="path4767" />
      <path
         style="fill:none;stroke:#000000;stroke-width:2;stroke-linecap:butt;stroke-linejoin:miter;stroke-miterlimit:4;stroke-dasharray:none;stroke-opacity:1"
         d="m -344.38997,291.41129 -0.85542,-0.39921 0.57028,0.96949"
         id="path4769" />
      <path
         style="fill:none;stroke:#000000;stroke-width:2;stroke-linecap:butt;stroke-linejoin:miter;stroke-miterlimit:4;stroke-dasharray:none;stroke-opacity:1"
         d="m -349.1803,306.23848 1.36866,1.08352"
         id="path4771" />
      <path
         style="fill:none;stroke:#000000;stroke-width:2;stroke-linecap:butt;stroke-linejoin:miter;stroke-miterlimit:4;stroke-dasharray:none;stroke-opacity:1"
         d="m -348.03974,286.62095 0.57028,1.25463"
         id="path4773" />
      <path
         style="fill:none;stroke:#000000;stroke-width:2;stroke-linecap:butt;stroke-linejoin:miter;stroke-miterlimit:4;stroke-dasharray:none;stroke-opacity:1"
         d="m -358.76095,301.79031 0.91245,-0.74134"
         id="path4775" />
      <path
         style="fill:none;stroke:#000000;stroke-width:2;stroke-linecap:butt;stroke-linejoin:miter;stroke-miterlimit:4;stroke-dasharray:none;stroke-opacity:1"
         d="m -363.8364,291.24021 -0.51326,1.14054"
         id="path4777" />
    </g>
    <g
       id="g6056"
       transform="matrix(0.99985619,0,0,1.0002777,405.13561,-152.02226)"
       style="stroke-width:2;stroke-miterlimit:4;stroke-dasharray:none"
       inkscape:export-filename="C:\Users\symrb\Documents\python\PremierEmpire\images\animaux_gros.png"
       inkscape:export-xdpi="25"
       inkscape:export-ydpi="25">
      <path
         style="fill:none;stroke:#000000;stroke-width:2;stroke-linecap:butt;stroke-linejoin:miter;stroke-miterlimit:4;stroke-dasharray:none;stroke-opacity:1"
         d="m -305.58009,286.22429 2.8227,-1.7743 3.62924,-0.16129 -0.8065,2.50013 0.96779,3.22596 4.67765,3.30663 1.37104,2.01623 -1.53233,1.77427 -2.33884,0.8065 -0.72583,2.82274 -3.06467,1.12908 -2.33884,-0.40325 -0.48389,-3.46792 -3.46792,-0.4839 -0.4839,-1.29037"
         id="path4892" />
      <path
         style="fill:none;stroke:#000000;stroke-width:2;stroke-linecap:butt;stroke-linejoin:miter;stroke-miterlimit:4;stroke-dasharray:none;stroke-opacity:1"
         d="m -294.4505,297.11192 -1.37109,4.19378 c 0.29572,0.45701 0.59143,0.91403 0.88715,1.37104 l -0.8065,3.70986 -1.45169,-0.0806 -1.45166,-1.12908 -2.09691,0.56454 1.69366,1.93559 -0.0806,3.38724 -3.14534,4.51636 -7.33907,4.51636 -4.51635,-0.40322 -2.50013,-4.11314 -4.43571,-3.22596 -1.20976,1.61298 -4.35507,-4.75829 -1.53233,-3.95182 -1.77427,2.25817 -1.45169,-5.00026 -0.8065,-6.77452 1.613,-6.04872 4.83894,-6.45192 6.93584,-4.83896 5.48415,-1.53233 4.43572,0.24193 1.53233,7.09716"
         id="path4894"
         sodipodi:nodetypes="cccccccccccccccccccccccccc" />
      <path
         style="fill:none;stroke:#000000;stroke-width:2;stroke-linecap:butt;stroke-linejoin:miter;stroke-miterlimit:4;stroke-dasharray:none;stroke-opacity:1"
         d="m -308.24154,280.17557 1.69365,-1.37102 2.58078,0.72583 0.40325,2.17752 -1.45169,1.53236 2.58077,-2.66144 1.85494,1.2904 -0.32261,2.50013"
         id="path4896" />
      <path
         style="fill:none;stroke:#000000;stroke-width:2;stroke-linecap:butt;stroke-linejoin:miter;stroke-miterlimit:4;stroke-dasharray:none;stroke-opacity:1"
         d="m -310.17712,286.54687 -1.77427,-2.01623 -3.30663,0.40325 -3.38728,2.82273 0.24196,1.69363 1.37105,1.2904 2.90338,0.56454"
         id="path4898" />
      <path
         style="fill:none;stroke:#000000;stroke-width:2;stroke-linecap:butt;stroke-linejoin:miter;stroke-miterlimit:4;stroke-dasharray:none;stroke-opacity:1"
         d="m -309.77387,284.20806 -3.30661,-2.33884 -4.83896,-0.96779 -5.48415,0.72583"
         id="path4900" />
      <path
         style="fill:none;stroke:#000000;stroke-width:2;stroke-linecap:butt;stroke-linejoin:miter;stroke-miterlimit:4;stroke-dasharray:none;stroke-opacity:1"
         d="m -318.6453,285.41779 -6.61323,1.53233"
         id="path4902" />
      <path
         style="fill:none;stroke:#000000;stroke-width:2;stroke-linecap:butt;stroke-linejoin:miter;stroke-miterlimit:4;stroke-dasharray:none;stroke-opacity:1"
         d="m -321.9519,290.25675 -4.11311,2.98402 -1.93558,2.58078 -1.12911,7.01648"
         id="path4904" />
      <path
         style="fill:none;stroke:#000000;stroke-width:2;stroke-linecap:butt;stroke-linejoin:miter;stroke-miterlimit:4;stroke-dasharray:none;stroke-opacity:1"
         d="m -320.74217,293.88596 -0.80648,3.46792 1.85491,5.64544"
         id="path4906" />
      <path
         style="fill:none;stroke:#000000;stroke-width:2;stroke-linecap:butt;stroke-linejoin:miter;stroke-miterlimit:4;stroke-dasharray:none;stroke-opacity:1"
         d="m -311.4675,293.96661 -0.88714,2.25819 0.8065,3.95179 2.50013,3.06469 3.38727,2.50013"
         id="path4908" />
      <path
         style="fill:none;stroke:#000000;stroke-width:2;stroke-linecap:butt;stroke-linejoin:miter;stroke-miterlimit:4;stroke-dasharray:none;stroke-opacity:1"
         d="m -314.45152,299.69272 0.64519,2.90335 5.96804,6.12936 0.72586,2.90336 -0.40325,4.11313"
         id="path4910" />
      <path
         style="fill:none;stroke:#000000;stroke-width:2;stroke-linecap:butt;stroke-linejoin:miter;stroke-miterlimit:4;stroke-dasharray:none;stroke-opacity:1"
         d="m -301.62828,308.24154 -2.82273,7.25842"
         id="path4912" />
      <path
         style="fill:none;stroke:#000000;stroke-width:2;stroke-linecap:butt;stroke-linejoin:miter;stroke-miterlimit:4;stroke-dasharray:none;stroke-opacity:1"
         d="m -312.43529,315.01606 -6.93584,-5.00025 -0.96779,-2.50013"
         id="path4914" />
      <path
         style="fill:none;stroke:#000000;stroke-width:2;stroke-linecap:butt;stroke-linejoin:miter;stroke-miterlimit:4;stroke-dasharray:none;stroke-opacity:1"
         d="m -298.40232,295.82155 3.14532,-0.4839 1.53233,-0.88715"
         id="path4916" />
      <path
         style="fill:none;stroke:#000000;stroke-width:2;stroke-linecap:butt;stroke-linejoin:miter;stroke-miterlimit:4;stroke-dasharray:none;stroke-opacity:1"
         d="m -304.81278,290.32776 1.19759,1.48273 1.82488,0.45622 1.71082,1.8819"
         id="path4920" />
      <g
         id="g5059"
         style="stroke-width:2;stroke-miterlimit:4;stroke-dasharray:none">
        <path
           style="fill:none;stroke:#000000;stroke-width:2;stroke-linecap:butt;stroke-linejoin:miter;stroke-miterlimit:4;stroke-dasharray:none;stroke-opacity:1"
           d="m -306.80874,290.2137 1.99596,0.11406 0.28515,-0.68434 -0.40716,-1.09294 -1.1536,0.1396"
           id="path4918"
           sodipodi:nodetypes="ccccc" />
      </g>
      <path
         style="fill:none;stroke:#000000;stroke-width:2;stroke-linecap:butt;stroke-linejoin:miter;stroke-miterlimit:4;stroke-dasharray:none;stroke-opacity:1"
         d="m -299.93465,286.78883 h -2.33884"
         id="path5630" />
    </g>
    <g
       id="g19108"
       style="stroke-width:2;stroke-miterlimit:4;stroke-dasharray:none"
       transform="matrix(0.99985619,0,0,1.0002777,-0.95575239,98.705328)"
       inkscape:export-filename="C:\Users\symrb\Documents\python\PremierEmpire\images\animaux_gros.png"
       inkscape:export-xdpi="25"
       inkscape:export-ydpi="25">
      <path
         style="fill:none;stroke:#000000;stroke-width:2;stroke-linecap:butt;stroke-linejoin:miter;stroke-miterlimit:4;stroke-dasharray:none;stroke-opacity:1"
         d="m 130.65183,62.583837 0.12565,-3.435 2.13252,-8.984989 4.35507,-5.161552 v -4.677659 l -2.90338,-1.451686 -1.12909,-3.38727 -7.25843,-6.613239 0.3226,-1.612988 2.58077,2.096881 7.74233,2.742076 5.00026,2.903373 6.77454,5.161555 6.45194,1.129089 3.46792,1.693635 2.66142,4.113114 5.6544,5.231579 0.71689,2.430101 -1.04844,1.209741 -0.0806,1.854933 -0.88715,0.564544 v 0 l -1.69358,0.725845 -4.75831,0.645194 -4.35506,-1.532337 -2.09688,0.161298 -2.98402,-0.96779 -2.09688,0.08065 -5.48415,-2.258179"
         id="path11686"
         sodipodi:nodetypes="ccccccccccccccccccccccccccccc" />
      <path
         style="fill:none;stroke:#000000;stroke-width:2;stroke-linecap:butt;stroke-linejoin:miter;stroke-miterlimit:4;stroke-dasharray:none;stroke-opacity:1"
         d="m 141.62013,35.001784 0.1613,-1.93558 2.17753,-2.742076 2.41947,-0.483896 3.62922,1.935583 2.50013,5.161553 0.89659,3.951456"
         id="path11688"
         sodipodi:nodetypes="ccccccc" />
      <path
         style="fill:none;stroke:#000000;stroke-width:2;stroke-linecap:butt;stroke-linejoin:miter;stroke-miterlimit:4;stroke-dasharray:none;stroke-opacity:1"
         d="m 149.81163,47.447005 -1.6538,-1.425693 2.10311,-0.707952 2.68721,-0.03341 1.4257,1.539748 -0.91245,0.171083 -1.08352,0.399192"
         id="path11690"
         sodipodi:nodetypes="ccccccc" />
      <path
         style="fill:none;stroke:#000000;stroke-width:2;stroke-linecap:butt;stroke-linejoin:miter;stroke-miterlimit:4;stroke-dasharray:none;stroke-opacity:1"
         d="m 166.63035,52.330756 -4.32966,0.248736 -0.57028,0.684331 v 0 l 4.56839,2.706775"
         id="path11692"
         sodipodi:nodetypes="ccccc" />
      <path
         style="fill:none;stroke:#000000;stroke-width:2;stroke-linecap:butt;stroke-linejoin:miter;stroke-miterlimit:4;stroke-dasharray:none;stroke-opacity:1"
         d="m 158.36578,56.343316 3.13652,1.767859 3.82875,0.2789"
         id="path11696"
         sodipodi:nodetypes="ccc" />
      <path
         style="fill:none;stroke:#000000;stroke-width:2;stroke-linecap:butt;stroke-linejoin:miter;stroke-miterlimit:4;stroke-dasharray:none;stroke-opacity:1"
         d="m 147.18836,55.31682 h 3.02247 l 2.85138,0.684332"
         id="path11698" />
      <path
         style="fill:none;stroke:#000000;stroke-width:2;stroke-linecap:butt;stroke-linejoin:miter;stroke-miterlimit:4;stroke-dasharray:none;stroke-opacity:1"
         d="m 155.00115,45.336981 1.6538,2.509215 2.27537,2.857116"
         id="path11700"
         sodipodi:nodetypes="ccc" />
      <path
         style="fill:none;stroke:#000000;stroke-width:2;stroke-linecap:butt;stroke-linejoin:miter;stroke-miterlimit:4;stroke-dasharray:none;stroke-opacity:1"
         d="m 150.03975,43.341014 1.42569,-0.114056 1.93893,0.74136"
         id="path11702" />
      <path
         style="fill:none;stroke:#000000;stroke-width:2;stroke-linecap:butt;stroke-linejoin:miter;stroke-miterlimit:4;stroke-dasharray:none;stroke-opacity:1"
         d="m 133.2326,35.485681 3.46268,2.437707 2.2811,2.509215 1.14055,2.509216"
         id="path11704" />
      <path
         style="fill:none;stroke:#000000;stroke-width:2;stroke-linecap:butt;stroke-linejoin:miter;stroke-miterlimit:4;stroke-dasharray:none;stroke-opacity:1"
         d="m 152.42722,58.390075 0.36614,3.413061 0.84031,1.404256"
         id="path11706"
         sodipodi:nodetypes="ccc" />
      <path
         style="fill:none;stroke:#000000;stroke-width:2;stroke-linecap:butt;stroke-linejoin:miter;stroke-miterlimit:4;stroke-dasharray:none;stroke-opacity:1"
         d="m 138.86232,51.952188 1.4257,4.163018 2.56624,1.881912"
         id="path11708" />
      <path
         style="fill:none;stroke:#000000;stroke-width:2;stroke-linecap:butt;stroke-linejoin:miter;stroke-miterlimit:4;stroke-dasharray:none;stroke-opacity:1"
         d="m 137.32258,48.644584 -0.6273,1.596774 0.22811,0.74136"
         id="path11710" />
      <path
         style="fill:none;stroke:#000000;stroke-width:2;stroke-linecap:butt;stroke-linejoin:miter;stroke-miterlimit:4;stroke-dasharray:none;stroke-opacity:1"
         d="m 134.41417,55.773041 2.053,2.452188 3.19354,2.45219 2.053,1.083524"
         id="path11712" />
      <path
         style="fill:none;stroke:#000000;stroke-width:2;stroke-linecap:butt;stroke-linejoin:miter;stroke-miterlimit:4;stroke-dasharray:none;stroke-opacity:1"
         d="m 139.60368,57.540897 2.053,1.710831 2.45219,0.855413"
         id="path11714" />
      <path
         style="fill:none;stroke:#000000;stroke-width:2;stroke-linecap:butt;stroke-linejoin:miter;stroke-miterlimit:4;stroke-dasharray:none;stroke-opacity:1"
         d="m 146.56106,59.194699 1.76786,0.342167"
         id="path11716" />
    </g>
    <g
       id="g19090"
       style="stroke-width:2.1649;stroke-miterlimit:4;stroke-dasharray:none"
       transform="matrix(0.91503547,0,0,0.93283514,-93.808446,51.039186)"
       inkscape:export-filename="C:\Users\symrb\Documents\python\PremierEmpire\images\animaux_gros.png"
       inkscape:export-xdpi="25"
       inkscape:export-ydpi="25">
      <path
         style="fill:none;stroke:#000000;stroke-width:2.1649;stroke-linecap:butt;stroke-linejoin:miter;stroke-miterlimit:4;stroke-dasharray:none;stroke-opacity:1"
         d="m 132.56058,100.00035 -1.98941,-6.124594 1.29039,-5.161553 2.74208,-2.822726 v -0.645194 l 3.06467,-3.548568 7.74233,-3.225972 7.90363,0.645195 7.50038,3.064674 4.19377,4.516358 2.01623,3.871166 0.32259,3.709866 -2.98402,6.935838 0.1613,3.38727 -0.56455,3.95181 -2.74207,4.51636 -2.82272,0.88715 -2.01623,-0.88715 1.20973,-0.96779 1.37104,-2.98402 -0.40325,-2.50013 -1.04844,-1.69363 -1.04844,-1.12909 -0.40324,-1.29039"
         id="path13950"
         sodipodi:nodetypes="cccccccccccccccccccccccc" />
      <path
         style="fill:none;stroke:#000000;stroke-width:2.1649;stroke-linecap:butt;stroke-linejoin:miter;stroke-miterlimit:4;stroke-dasharray:none;stroke-opacity:1"
         d="m 148.15783,92.66993 -0.28514,-1.767858 v 0 l 1.25461,-1.311635 1.96746,1.083526 1.65499,2.717896 0.54057,2.642703 -1.71083,-0.399195"
         id="path13954"
         sodipodi:nodetypes="cccccccc" />
      <g
         id="g18383"
         style="stroke-width:2.1649;stroke-miterlimit:4;stroke-dasharray:none">
        <g
           id="g18444"
           style="stroke-width:2.1649;stroke-miterlimit:4;stroke-dasharray:none">
          <path
             style="fill:none;stroke:#000000;stroke-width:2.1649;stroke-linecap:butt;stroke-linejoin:miter;stroke-miterlimit:4;stroke-dasharray:none;stroke-opacity:1"
             d="m 150.2496,90.347349 -0.64519,0.483897 -0.54439,0.766167 -0.0403,0.866981 0.28227,0.96779 0.66536,0.806493 0.98795,0.483896 0.88714,-0.08065 0.62503,-0.54438 0.28228,-0.705684"
             id="path13958"
             sodipodi:nodetypes="cccccccccc" />
        </g>
      </g>
      <path
         style="fill:none;stroke:#000000;stroke-width:2.1649;stroke-linecap:butt;stroke-linejoin:miter;stroke-miterlimit:4;stroke-dasharray:none;stroke-opacity:1"
         d="m 161.10311,98.885943 -0.34217,0.456221 0.45622,0.570277 0.57028,-0.22811"
         id="path13960" />
      <path
         style="fill:none;stroke:#000000;stroke-width:2.1649;stroke-linecap:butt;stroke-linejoin:miter;stroke-miterlimit:4;stroke-dasharray:none;stroke-opacity:1"
         d="m 143.59604,88.51258 -2.66143,0.725842 -0.88715,1.330714 -2.50012,1.371036 -2.70175,2.33883 -1.20974,2.217856"
         id="path13962"
         sodipodi:nodetypes="cccccc" />
      <path
         style="fill:none;stroke:#000000;stroke-width:2.1649;stroke-linecap:butt;stroke-linejoin:miter;stroke-miterlimit:4;stroke-dasharray:none;stroke-opacity:1"
         d="m 152.5481,98.109843 1.04844,2.459807"
         id="path13964" />
      <path
         style="fill:none;stroke:#000000;stroke-width:2.1649;stroke-linecap:butt;stroke-linejoin:miter;stroke-miterlimit:4;stroke-dasharray:none;stroke-opacity:1"
         d="m 136.58122,85.88364 -1.6538,2.851383 -0.22811,2.85138"
         id="path13978" />
      <path
         style="fill:none;stroke:#000000;stroke-width:2.1649;stroke-linecap:butt;stroke-linejoin:miter;stroke-miterlimit:4;stroke-dasharray:none;stroke-opacity:1"
         d="m 156.31279,108.03888 0.057,4.24856 -1.19758,5.13249 -1.36866,3.3076"
         id="path14099" />
      <path
         style="fill:none;stroke:#000000;stroke-width:2.1649;stroke-linecap:butt;stroke-linejoin:miter;stroke-miterlimit:4;stroke-dasharray:none;stroke-opacity:1"
         d="m 118.78859,102.87788 1.65381,-3.478688 2.39515,-3.535714 2.08818,-2.310318 v 0 l 0.48389,-1.612988 3.14532,-2.096881 3.30662,-1.129088"
         id="path14101"
         sodipodi:nodetypes="cccccccc" />
      <path
         style="fill:none;stroke:#000000;stroke-width:2.1649;stroke-linecap:butt;stroke-linejoin:miter;stroke-miterlimit:4;stroke-dasharray:none;stroke-opacity:1"
         d="m 152.8341,90.673961 3.19355,-3.079493 h 1.71083 l 2.16705,-0.912442 2.05299,0.627306 1.68232,-0.199599 2.33813,1.568262"
         id="path15409" />
      <path
         style="fill:none;stroke:#000000;stroke-width:2.1649;stroke-linecap:butt;stroke-linejoin:miter;stroke-miterlimit:4;stroke-dasharray:none;stroke-opacity:1"
         d="m 139.29003,106.75576 1.8534,2.53773 1.79637,0.42771"
         id="path15411" />
      <path
         style="fill:none;stroke:#000000;stroke-width:2.1649;stroke-linecap:butt;stroke-linejoin:miter;stroke-miterlimit:4;stroke-dasharray:none;stroke-opacity:1"
         d="m 135.0985,96.69038 -0.79839,2.822869 1.0265,2.623271"
         id="path15541" />
      <path
         style="fill:none;stroke:#000000;stroke-width:2.1649;stroke-linecap:butt;stroke-linejoin:miter;stroke-miterlimit:4;stroke-dasharray:none;stroke-opacity:1"
         d="m 156.68347,100.96745 3.5072,-2.794353 2.65178,0.65582 1.52077,2.385923"
         id="path15656" />
      <path
         style="fill:none;stroke:#000000;stroke-width:2.1649;stroke-linecap:butt;stroke-linejoin:miter;stroke-miterlimit:4;stroke-dasharray:none;stroke-opacity:1"
         d="m 155.42123,104.34 -1.70371,1.7138 v 0 l 2.01623,1.77428 3.22597,1.29039"
         id="path16182"
         sodipodi:nodetypes="ccccc" />
      <path
         style="fill:none;stroke:#000000;stroke-width:2.1649;stroke-linecap:butt;stroke-linejoin:miter;stroke-miterlimit:4;stroke-dasharray:none;stroke-opacity:1"
         d="m 129.20014,101.13419 1.53234,3.38727 1.69363,0.96779"
         id="path16297" />
      <path
         style="fill:none;stroke:#000000;stroke-width:2.1649;stroke-linecap:butt;stroke-linejoin:miter;stroke-miterlimit:4;stroke-dasharray:none;stroke-opacity:1"
         d="m 130.53085,107.14256 2.86305,3.38727 4.71798,2.4598"
         id="path16299" />
      <path
         style="fill:none;stroke:#000000;stroke-width:2.1649;stroke-linecap:butt;stroke-linejoin:miter;stroke-miterlimit:4;stroke-dasharray:none;stroke-opacity:1"
         d="m 138.87805,111.25567 4.95993,2.01624 3.70987,-0.60487"
         id="path16301" />
      <path
         style="fill:none;stroke:#000000;stroke-width:2.1649;stroke-linecap:butt;stroke-linejoin:miter;stroke-miterlimit:4;stroke-dasharray:none;stroke-opacity:1"
         d="m 150.89479,113.15093 3.14533,-2.01623 1.33071,-2.25818"
         id="path16303" />
      <path
         style="fill:none;stroke:#000000;stroke-width:2.1649;stroke-linecap:butt;stroke-linejoin:miter;stroke-miterlimit:4;stroke-dasharray:none;stroke-opacity:1"
         d="m 126.54435,106.0144 1.82489,2.45219"
         id="path16395" />
      <path
         style="fill:none;stroke:#000000;stroke-width:2.1649;stroke-linecap:butt;stroke-linejoin:miter;stroke-miterlimit:4;stroke-dasharray:none;stroke-opacity:1"
         d="m 140.28802,115.25288 h 3.76382"
         id="path16397" />
      <path
         style="fill:none;stroke:#000000;stroke-width:2.1649;stroke-linecap:butt;stroke-linejoin:miter;stroke-miterlimit:4;stroke-dasharray:none;stroke-opacity:1"
         d="m 128.0841,111.26094 4.16302,4.22005"
         id="path16399" />
      <path
         style="fill:none;stroke:#000000;stroke-width:2.1649;stroke-linecap:butt;stroke-linejoin:miter;stroke-miterlimit:4;stroke-dasharray:none;stroke-opacity:1"
         d="m 128.72889,98.928985 -1.08876,3.580785 -2.31234,3.05657 -2.04964,4.45814 -1.34455,3.70987 -0.96779,4.25128"
         id="path16594"
         sodipodi:nodetypes="cccccc" />
      <path
         style="fill:none;stroke:#000000;stroke-width:2.1649;stroke-linecap:butt;stroke-linejoin:miter;stroke-miterlimit:4;stroke-dasharray:none;stroke-opacity:1"
         d="m 138.52016,97.289169 -0.057,2.680301"
         id="path16824" />
      <path
         style="fill:none;stroke:#000000;stroke-width:2.1649;stroke-linecap:butt;stroke-linejoin:miter;stroke-miterlimit:4;stroke-dasharray:none;stroke-opacity:1"
         d="m 142.16993,92.156681 1.6538,1.083524"
         id="path16830" />
      <path
         style="fill:none;stroke:#000000;stroke-width:2.1649;stroke-linecap:butt;stroke-linejoin:miter;stroke-miterlimit:4;stroke-dasharray:none;stroke-opacity:1"
         d="m 146.38997,107.0409 3.02247,1.6538"
         id="path16832" />
      <path
         style="fill:none;stroke:#000000;stroke-width:2.1649;stroke-linecap:butt;stroke-linejoin:miter;stroke-miterlimit:4;stroke-dasharray:none;stroke-opacity:1"
         d="m 142.5121,99.570274 0.74136,2.623276"
         id="path17563" />
      <path
         style="fill:none;stroke:#000000;stroke-width:2.1649;stroke-linecap:butt;stroke-linejoin:miter;stroke-miterlimit:4;stroke-dasharray:none;stroke-opacity:1"
         d="m 146.67511,101.11002 1.36867,2.56625"
         id="path17565" />
      <path
         style="fill:none;stroke:#000000;stroke-width:2.1649;stroke-linecap:butt;stroke-linejoin:miter;stroke-miterlimit:4;stroke-dasharray:none;stroke-opacity:1"
         d="m 141.59965,96.262673 2.6803,1.026496"
         id="path17567" />
    </g>
    <g
       id="g19055"
       style="stroke-width:2;stroke-miterlimit:4;stroke-dasharray:none"
       inkscape:export-filename="C:\Users\symrb\Documents\python\PremierEmpire\images\animaux_gros.png"
       inkscape:export-xdpi="25"
       inkscape:export-ydpi="25"
       transform="matrix(0.99985619,0,0,1.0002777,0.01189982,-0.03680717)">
      <g
         id="g11559"
         transform="matrix(1.0963005,0,0,1.1090084,323.39725,-229.48227)"
         style="stroke-width:1.81384;stroke-miterlimit:4;stroke-dasharray:none">
        <path
           style="fill:none;stroke:#000000;stroke-width:1.81384;stroke-linecap:round;stroke-linejoin:round;stroke-miterlimit:4;stroke-dasharray:none;stroke-opacity:1"
           d="m -279.53038,296.14413 2.25816,-3.70986 3.30663,-4.03246 -0.96779,-0.56454 3.22599,-2.50013 3.38724,-1.2904 1.53234,-3.46792 1.613,-1.20973 h 2.58077 l 3.22597,3.46792 6.00838,-0.32261 8.13549,4.37523 -0.37297,0.82666 2.84289,0.44356 h -4e-5 l 3.14533,1.12911 -0.40325,2.25816 v 0 l -1.30388,4.37346 v 0 l -2.28501,1.07037 -1.00812,-1.53233 -2.05656,1.6533 -0.92746,-1.37102 -3.46792,1.85492"
           id="path6938"
           sodipodi:nodetypes="ccccccccccccccccccccccccc" />
        <path
           style="fill:none;stroke:#000000;stroke-width:1.81384;stroke-linecap:round;stroke-linejoin:round;stroke-miterlimit:4;stroke-dasharray:none;stroke-opacity:1"
           d="m -265.25548,287.19205 -5.48415,4.91961 -0.88712,2.2582 0.64519,6.69388"
           id="path6940" />
        <path
           style="fill:none;stroke:#000000;stroke-width:1.81384;stroke-linecap:round;stroke-linejoin:round;stroke-miterlimit:4;stroke-dasharray:none;stroke-opacity:1"
           d="m -259.04547,290.65998 2.25818,2.01623 0.80649,3.87117 -0.24195,2.98402"
           id="path6942" />
        <path
           style="fill:none;stroke:#000000;stroke-width:1.81384;stroke-linecap:round;stroke-linejoin:round;stroke-miterlimit:4;stroke-dasharray:none;stroke-opacity:1"
           d="m -266.22324,298.72492 1.53233,2.58078 3.38726,1.45169 3.87117,0.80647"
           id="path6946" />
        <path
           style="fill:none;stroke:#000000;stroke-width:1.81384;stroke-linecap:round;stroke-linejoin:round;stroke-miterlimit:4;stroke-dasharray:none;stroke-opacity:1"
           d="m -269.52987,308.08022 v -1.04844 l 2.58077,-1.85491 3.87116,-0.40325 -0.88714,3.06467"
           id="path6948" />
        <path
           style="fill:none;stroke:#000000;stroke-width:1.81384;stroke-linecap:round;stroke-linejoin:round;stroke-miterlimit:4;stroke-dasharray:none;stroke-opacity:1"
           d="m -253.31937,299.61205 -0.88714,1.53233 0.32259,3.30663"
           id="path6950"
           sodipodi:nodetypes="ccc" />
        <path
           style="fill:none;stroke:#000000;stroke-width:1.81384;stroke-linecap:round;stroke-linejoin:round;stroke-miterlimit:4;stroke-dasharray:none;stroke-opacity:1"
           d="m -252.10963,302.27349 1.45168,-0.8065 1.53234,1.45169 2.01623,-0.4839"
           id="path6952" />
        <path
           style="fill:none;stroke:#000000;stroke-width:1.81384;stroke-linecap:round;stroke-linejoin:round;stroke-miterlimit:4;stroke-dasharray:none;stroke-opacity:1"
           d="m -247.77474,302.57592 0.54439,-2.17753 v 0 l 1.25006,-2.23803 v 0 l 1.8374,-1.88226"
           id="path7269"
           sodipodi:nodetypes="cccccc" />
        <path
           style="fill:none;stroke:#000000;stroke-width:1.81384;stroke-linecap:round;stroke-linejoin:round;stroke-miterlimit:4;stroke-dasharray:none;stroke-opacity:1"
           d="m -247.10938,302.43478 0.0806,0.56454 1.63315,-0.4839 -2.43964,2.90338 h 5e-5 l -0.88714,0.88715 -3.54857,-0.16131 v 0 l -1.04844,1.37104 v 0 l 1.85493,4.2341"
           id="path7273"
           sodipodi:nodetypes="ccccccccccc" />
        <path
           style="fill:none;stroke:#000000;stroke-width:1.81384;stroke-linecap:round;stroke-linejoin:round;stroke-miterlimit:4;stroke-dasharray:none;stroke-opacity:1"
           d="m -263.41071,280.9182 -1.42569,0.17108 -1.31165,2.68031 1.0265,-0.11406"
           id="path7443" />
        <path
           style="fill:none;stroke:#000000;stroke-width:1.81384;stroke-linecap:round;stroke-linejoin:round;stroke-miterlimit:4;stroke-dasharray:none;stroke-opacity:1"
           d="m -267.99754,297.51517 2.54045,4.63733 1.61299,0.76618"
           id="path9662" />
        <path
           style="fill:none;stroke:#000000;stroke-width:1.81384;stroke-linecap:round;stroke-linejoin:round;stroke-miterlimit:4;stroke-dasharray:none;stroke-opacity:1"
           d="m -268.40079,286.54687 -4.35507,3.14531 -2.82271,3.22599 1.61298,0.16129 -1.04844,1.69365"
           id="path9664" />
        <path
           style="fill:none;stroke:#000000;stroke-width:1.81384;stroke-linecap:round;stroke-linejoin:round;stroke-miterlimit:4;stroke-dasharray:none;stroke-opacity:1"
           d="m -272.27196,299.45076 0.12099,2.98402 -1.49201,2.09688"
           id="path9779" />
      </g>
      <path
         style="fill:none;stroke:#000000;stroke-width:2;stroke-linecap:round;stroke-linejoin:round;stroke-miterlimit:4;stroke-dasharray:none;stroke-opacity:1"
         d="m 46.864429,90.42425 1.471123,0.11238 1.2e-5,2e-6 1.138519,-1.146493 -0.143823,-0.508137 -1.790435,-1.118035 h -1.1e-5 l -1.237821,0.134167"
         id="path18867"
         sodipodi:nodetypes="cccccccc" />
    </g>
  </g>
</svg>
